<svg id="svg" version="1.1" xmlns="http://www.w3.org/2000/svg" xmlns:xlink="http://www.w3.org/1999/xlink" width="400" height="480" viewBox="0, 0, 400,480"><g id="svgg"><path id="path0" d="M155.309 2.019 C 125.280 8.802,92.887 26.136,72.598 46.278 L 62.696 56.109 58.849 52.352 C 56.646 50.201,53.069 44.623,50.479 39.298 C 45.755 29.588,42.530 27.232,40.148 31.750 C 34.821 41.852,33.708 75.087,38.259 88.160 L 40.925 95.819 38.012 105.160 C 30.315 129.843,25.741 162.899,25.580 195.000 L 25.463 218.500 19.220 230.757 C 0.702 267.116,-2.055 302.963,11.242 334.500 C 12.865 338.350,15.945 346.409,18.086 352.410 C 27.458 378.674,43.857 386.293,68.050 375.623 C 69.179 375.125,70.082 375.966,71.371 378.720 C 97.584 434.682,132.291 471.130,165.884 477.976 C 206.569 486.267,236.019 478.031,291.875 442.739 C 328.555 419.564,334.916 418.780,366.953 433.497 C 380.393 439.670,390.906 441.603,397.352 439.086 L 400.204 437.972 399.812 429.736 C 398.966 411.943,380.037 383.976,358.633 368.895 C 343.008 357.885,316.769 352.478,300.965 357.010 L 297.920 357.883 301.119 352.192 C 305.497 344.400,305.701 344.184,311.437 341.284 C 318.300 337.813,326.553 332.131,334.394 325.479 C 352.110 310.449,356.652 276.602,345.142 245.385 L 342.153 237.279 345.494 220.390 C 355.061 172.016,353.862 129.217,341.998 95.643 C 338.916 86.921,338.893 86.724,340.529 82.643 C 345.228 70.923,348.764 39.437,346.132 32.750 C 344.242 27.948,339.609 28.895,334.070 35.216 C 331.557 38.085,326.743 43.340,323.373 46.894 L 317.246 53.355 309.373 45.913 C 283.243 21.214,257.917 8.373,221.835 1.528 C 209.529 -0.806,166.407 -0.488,155.309 2.019 M209.495 13.025 C 246.592 16.098,280.934 32.839,302.169 58.201 L 306.139 62.944 302.902 66.972 C 290.905 81.900,307.127 105.064,325.363 99.045 C 330.094 97.484,330.584 97.913,332.995 105.720 C 342.530 136.590,341.614 184.677,330.784 221.862 C 326.607 236.201,326.737 239.554,331.883 250.203 C 343.565 274.380,340.318 302.551,323.937 319.149 C 312.230 331.011,283.687 341.670,254.661 345.020 C 242.969 346.369,243.485 346.718,243.831 337.694 C 244.001 333.275,243.512 328.571,242.565 325.500 C 241.716 322.750,241.017 320.221,241.011 319.880 C 241.005 319.538,246.512 316.537,253.250 313.209 C 269.786 305.043,282.838 293.561,284.576 285.651 C 285.861 279.804,283.384 280.381,275.646 287.732 C 261.041 301.605,236.826 310.713,222.943 307.555 C 202.223 302.843,187.673 312.956,186.228 333.075 C 184.232 360.888,213.915 375.267,234.795 356.602 L 238.500 353.290 252.500 352.675 C 260.200 352.337,270.488 351.348,275.363 350.477 C 285.624 348.643,285.955 348.775,283.575 353.763 C 281.278 358.579,279.020 369.361,279.736 372.100 C 280.395 374.619,281.455 374.529,299.000 370.475 C 331.271 363.017,362.196 379.845,380.823 415.000 C 388.470 429.432,388.600 429.375,369.039 420.125 C 335.775 404.394,324.084 406.636,271.000 438.923 C 228.343 464.868,204.177 471.794,174.658 466.533 C 146.372 461.491,115.716 430.988,89.146 381.447 C 79.294 363.078,79.257 362.948,81.500 354.339 C 86.307 335.884,80.459 321.709,64.628 313.440 C 59.720 310.876,58.814 309.925,57.535 306.000 C 29.335 219.457,34.928 114.257,70.050 70.598 C 103.711 28.755,153.120 8.355,209.495 13.025 M336.031 59.202 C 333.857 74.066,328.049 87.956,322.483 91.603 C 317.662 94.762,308.762 87.824,306.058 78.800 C 304.599 73.928,304.628 73.892,314.797 68.163 C 318.055 66.327,324.268 61.257,328.604 56.895 C 337.480 47.967,337.665 48.025,336.031 59.202 M57.638 67.500 C 56.133 71.424,47.720 83.120,46.954 82.354 C 45.700 81.100,44.044 68.844,44.020 60.647 L 44.000 53.794 51.050 60.045 C 54.928 63.482,57.893 66.837,57.638 67.500 M57.563 145.263 C 50.280 156.379,53.954 181.871,64.380 192.560 C 76.060 204.534,95.393 200.080,95.470 185.397 L 95.500 179.576 89.000 176.038 C 79.811 171.036,72.452 163.259,66.500 152.259 C 61.248 142.553,59.986 141.565,57.563 145.263 M189.440 154.010 C 183.424 165.659,177.687 171.931,167.624 177.862 C 156.010 184.706,155.973 193.173,167.530 199.718 C 187.089 210.796,207.734 182.436,200.455 154.489 C 199.004 148.919,196.707 145.000,194.892 145.000 C 194.453 145.000,192.000 149.055,189.440 154.010 M34.071 263.181 C 36.202 273.257,39.551 289.282,41.514 298.793 C 46.077 320.909,46.111 320.994,50.225 321.022 C 69.776 321.153,78.094 354.699,61.375 365.983 C 48.991 374.341,29.102 361.425,29.022 344.974 C 29.005 341.406,28.087 338.972,24.686 333.474 C 12.306 313.458,13.373 280.458,27.461 247.642 C 29.698 242.431,29.666 242.355,34.071 263.181 M222.500 316.879 C 230.444 320.523,236.000 328.602,236.000 336.510 C 236.000 359.095,197.385 362.464,195.232 340.067 C 193.584 322.912,208.325 310.376,222.500 316.879 " stroke="none" fill="#000000" fill-rule="evenodd"></path></g></svg>